<svg width="64" height="26" viewBox="0 0 64 26" fill="none" xmlns="http://www.w3.org/2000/svg">
<path d="M30.1941 8.08284C33.0868 11.0509 26.5053 17.2643 22.8529 20C27.4549 20 33.397 10.8002 34.5729 8.86982C35.7487 6.93939 40.5303 3.1361 44 1C43.4887 1.2998 40.187 2.41657 31.0707 4.48521C21.9544 6.55385 19.8945 8.71992 20.0041 9.54438C22.1955 7.82051 27.3015 5.11479 30.1941 8.08284Z" fill="#F6821F" stroke="#F6821F" stroke-width="0.5"/>
<path d="M5.35178 17.144C4.70378 17.144 4.09978 17.04 3.53978 16.832C2.98778 16.616 2.50778 16.312 2.09978 15.92C1.69178 15.528 1.37178 15.068 1.13978 14.54C0.915781 14.012 0.803781 13.432 0.803781 12.8C0.803781 12.168 0.915781 11.588 1.13978 11.06C1.37178 10.532 1.69178 10.072 2.09978 9.68C2.51578 9.288 2.99978 8.988 3.55178 8.78C4.10378 8.564 4.70778 8.456 5.36378 8.456C6.09178 8.456 6.74778 8.584 7.33178 8.84C7.92378 9.088 8.41978 9.456 8.81978 9.944L7.57178 11.096C7.28378 10.768 6.96378 10.524 6.61178 10.364C6.25978 10.196 5.87578 10.112 5.45978 10.112C5.06778 10.112 4.70778 10.176 4.37978 10.304C4.05178 10.432 3.76778 10.616 3.52778 10.856C3.28778 11.096 3.09978 11.38 2.96378 11.708C2.83578 12.036 2.77178 12.4 2.77178 12.8C2.77178 13.2 2.83578 13.564 2.96378 13.892C3.09978 14.22 3.28778 14.504 3.52778 14.744C3.76778 14.984 4.05178 15.168 4.37978 15.296C4.70778 15.424 5.06778 15.488 5.45978 15.488C5.87578 15.488 6.25978 15.408 6.61178 15.248C6.96378 15.08 7.28378 14.828 7.57178 14.492L8.81978 15.644C8.41978 16.132 7.92378 16.504 7.33178 16.76C6.74778 17.016 6.08778 17.144 5.35178 17.144ZM13.4619 17.096C12.7259 17.096 12.0779 16.952 11.5179 16.664C10.9659 16.376 10.5379 15.984 10.2339 15.488C9.92991 14.984 9.77791 14.412 9.77791 13.772C9.77791 13.124 9.92591 12.552 10.2219 12.056C10.5259 11.552 10.9379 11.16 11.4579 10.88C11.9779 10.592 12.5659 10.448 13.2219 10.448C13.8539 10.448 14.4219 10.584 14.9259 10.856C15.4379 11.12 15.8419 11.504 16.1379 12.008C16.4339 12.504 16.5819 13.1 16.5819 13.796C16.5819 13.868 16.5779 13.952 16.5699 14.048C16.5619 14.136 16.5539 14.22 16.5459 14.3H11.3019V13.208H15.5619L14.8419 13.532C14.8419 13.196 14.7739 12.904 14.6379 12.656C14.5019 12.408 14.3139 12.216 14.0739 12.08C13.8339 11.936 13.5539 11.864 13.2339 11.864C12.9139 11.864 12.6299 11.936 12.3819 12.08C12.1419 12.216 11.9539 12.412 11.8179 12.668C11.6819 12.916 11.6139 13.212 11.6139 13.556V13.844C11.6139 14.196 11.6899 14.508 11.8419 14.78C12.0019 15.044 12.2219 15.248 12.5019 15.392C12.7899 15.528 13.1259 15.596 13.5099 15.596C13.8539 15.596 14.1539 15.544 14.4099 15.44C14.6739 15.336 14.9139 15.18 15.1299 14.972L16.1259 16.052C15.8299 16.388 15.4579 16.648 15.0099 16.832C14.5619 17.008 14.0459 17.096 13.4619 17.096ZM22.2322 10.448C22.7442 10.448 23.2002 10.552 23.6002 10.76C24.0082 10.96 24.3282 11.272 24.5602 11.696C24.7922 12.112 24.9082 12.648 24.9082 13.304V17H23.0362V13.592C23.0362 13.072 22.9202 12.688 22.6882 12.44C22.4642 12.192 22.1442 12.068 21.7282 12.068C21.4322 12.068 21.1642 12.132 20.9242 12.26C20.6922 12.38 20.5082 12.568 20.3722 12.824C20.2442 13.08 20.1802 13.408 20.1802 13.808V17H18.3082V10.544H20.0962V12.332L19.7602 11.792C19.9922 11.36 20.3242 11.028 20.7562 10.796C21.1882 10.564 21.6802 10.448 22.2322 10.448ZM38.802 17V15.74L38.682 15.464V13.208C38.682 12.808 38.558 12.496 38.31 12.272C38.07 12.048 37.698 11.936 37.194 11.936C36.85 11.936 36.51 11.992 36.174 12.104C35.846 12.208 35.566 12.352 35.334 12.536L34.662 11.228C35.014 10.98 35.438 10.788 35.934 10.652C36.43 10.516 36.934 10.448 37.446 10.448C38.43 10.448 39.194 10.68 39.738 11.144C40.282 11.608 40.554 12.332 40.554 13.316V17H38.802ZM36.834 17.096C36.33 17.096 35.898 17.012 35.538 16.844C35.178 16.668 34.902 16.432 34.71 16.136C34.518 15.84 34.422 15.508 34.422 15.14C34.422 14.756 34.514 14.42 34.698 14.132C34.89 13.844 35.19 13.62 35.598 13.46C36.006 13.292 36.538 13.208 37.194 13.208H38.91V14.3H37.398C36.958 14.3 36.654 14.372 36.486 14.516C36.326 14.66 36.246 14.84 36.246 15.056C36.246 15.296 36.338 15.488 36.522 15.632C36.714 15.768 36.974 15.836 37.302 15.836C37.614 15.836 37.894 15.764 38.142 15.62C38.39 15.468 38.57 15.248 38.682 14.96L38.97 15.824C38.834 16.24 38.586 16.556 38.226 16.772C37.866 16.988 37.402 17.096 36.834 17.096ZM45.4522 17.096C44.9162 17.096 44.4362 16.992 44.0122 16.784C43.5962 16.576 43.2722 16.26 43.0402 15.836C42.8082 15.404 42.6922 14.856 42.6922 14.192V10.544H44.5642V13.916C44.5642 14.452 44.6762 14.848 44.9002 15.104C45.1322 15.352 45.4562 15.476 45.8722 15.476C46.1602 15.476 46.4162 15.416 46.6402 15.296C46.8642 15.168 47.0402 14.976 47.1682 14.72C47.2962 14.456 47.3602 14.128 47.3602 13.736V10.544H49.2322V17H47.4562V15.224L47.7802 15.74C47.5642 16.188 47.2442 16.528 46.8202 16.76C46.4042 16.984 45.9482 17.096 45.4522 17.096ZM51.4465 17V10.544H53.2345V12.368L52.9825 11.84C53.1745 11.384 53.4825 11.04 53.9065 10.808C54.3305 10.568 54.8465 10.448 55.4545 10.448V12.176C55.3745 12.168 55.3025 12.164 55.2385 12.164C55.1745 12.156 55.1065 12.152 55.0345 12.152C54.5225 12.152 54.1065 12.3 53.7865 12.596C53.4745 12.884 53.3185 13.336 53.3185 13.952V17H51.4465ZM60.0727 17.096C59.3847 17.096 58.7727 16.952 58.2367 16.664C57.7087 16.376 57.2887 15.984 56.9767 15.488C56.6727 14.984 56.5207 14.412 56.5207 13.772C56.5207 13.124 56.6727 12.552 56.9767 12.056C57.2887 11.552 57.7087 11.16 58.2367 10.88C58.7727 10.592 59.3847 10.448 60.0727 10.448C60.7527 10.448 61.3607 10.592 61.8967 10.88C62.4327 11.16 62.8527 11.548 63.1567 12.044C63.4607 12.54 63.6127 13.116 63.6127 13.772C63.6127 14.412 63.4607 14.984 63.1567 15.488C62.8527 15.984 62.4327 16.376 61.8967 16.664C61.3607 16.952 60.7527 17.096 60.0727 17.096ZM60.0727 15.56C60.3847 15.56 60.6647 15.488 60.9127 15.344C61.1607 15.2 61.3567 14.996 61.5007 14.732C61.6447 14.46 61.7167 14.14 61.7167 13.772C61.7167 13.396 61.6447 13.076 61.5007 12.812C61.3567 12.548 61.1607 12.344 60.9127 12.2C60.6647 12.056 60.3847 11.984 60.0727 11.984C59.7607 11.984 59.4807 12.056 59.2327 12.2C58.9847 12.344 58.7847 12.548 58.6327 12.812C58.4887 13.076 58.4167 13.396 58.4167 13.772C58.4167 14.14 58.4887 14.46 58.6327 14.732C58.7847 14.996 58.9847 15.2 59.2327 15.344C59.4807 15.488 59.7607 15.56 60.0727 15.56Z" fill="white"/>
<path d="M31.9394 24L33.8594 19.8H34.2974L36.2174 24H35.7494L33.9854 20.058H34.1654L32.4014 24H31.9394ZM32.6954 22.878L32.8274 22.518H35.2694L35.4014 22.878H32.6954ZM38.3409 24.03C38.0289 24.03 37.7489 23.962 37.5009 23.826C37.2569 23.686 37.0649 23.496 36.9249 23.256C36.7849 23.012 36.7149 22.734 36.7149 22.422C36.7149 22.106 36.7849 21.828 36.9249 21.588C37.0649 21.348 37.2569 21.16 37.5009 21.024C37.7489 20.888 38.0289 20.82 38.3409 20.82C38.6089 20.82 38.8509 20.872 39.0669 20.976C39.2829 21.08 39.4529 21.236 39.5769 21.444L39.2589 21.66C39.1509 21.5 39.0169 21.382 38.8569 21.306C38.6969 21.23 38.5229 21.192 38.3349 21.192C38.1109 21.192 37.9089 21.244 37.7289 21.348C37.5489 21.448 37.4069 21.59 37.3029 21.774C37.1989 21.958 37.1469 22.174 37.1469 22.422C37.1469 22.67 37.1989 22.886 37.3029 23.07C37.4069 23.254 37.5489 23.398 37.7289 23.502C37.9089 23.602 38.1109 23.652 38.3349 23.652C38.5229 23.652 38.6969 23.614 38.8569 23.538C39.0169 23.462 39.1509 23.346 39.2589 23.19L39.5769 23.406C39.4529 23.61 39.2829 23.766 39.0669 23.874C38.8509 23.978 38.6089 24.03 38.3409 24.03ZM42.6278 24V23.304L42.6098 23.19V22.026C42.6098 21.758 42.5338 21.552 42.3818 21.408C42.2338 21.264 42.0118 21.192 41.7158 21.192C41.5118 21.192 41.3178 21.226 41.1338 21.294C40.9498 21.362 40.7938 21.452 40.6658 21.564L40.4738 21.246C40.6338 21.11 40.8258 21.006 41.0498 20.934C41.2738 20.858 41.5098 20.82 41.7578 20.82C42.1658 20.82 42.4798 20.922 42.6998 21.126C42.9238 21.326 43.0358 21.632 43.0358 22.044V24H42.6278ZM41.5418 24.03C41.3058 24.03 41.0998 23.992 40.9238 23.916C40.7518 23.836 40.6198 23.728 40.5278 23.592C40.4358 23.452 40.3898 23.292 40.3898 23.112C40.3898 22.948 40.4278 22.8 40.5038 22.668C40.5838 22.532 40.7118 22.424 40.8878 22.344C41.0678 22.26 41.3078 22.218 41.6078 22.218H42.6938V22.536H41.6198C41.3158 22.536 41.1038 22.59 40.9838 22.698C40.8678 22.806 40.8098 22.94 40.8098 23.1C40.8098 23.28 40.8798 23.424 41.0198 23.532C41.1598 23.64 41.3558 23.694 41.6078 23.694C41.8478 23.694 42.0538 23.64 42.2258 23.532C42.4018 23.42 42.5298 23.26 42.6098 23.052L42.7058 23.346C42.6258 23.554 42.4858 23.72 42.2858 23.844C42.0898 23.968 41.8418 24.03 41.5418 24.03ZM45.6868 24.03C45.3868 24.03 45.1168 23.962 44.8768 23.826C44.6408 23.69 44.4548 23.502 44.3188 23.262C44.1828 23.018 44.1148 22.738 44.1148 22.422C44.1148 22.102 44.1828 21.822 44.3188 21.582C44.4548 21.342 44.6408 21.156 44.8768 21.024C45.1168 20.888 45.3868 20.82 45.6868 20.82C45.9628 20.82 46.2088 20.882 46.4248 21.006C46.6448 21.13 46.8188 21.312 46.9468 21.552C47.0788 21.788 47.1448 22.078 47.1448 22.422C47.1448 22.762 47.0808 23.052 46.9528 23.292C46.8248 23.532 46.6508 23.716 46.4308 23.844C46.2148 23.968 45.9668 24.03 45.6868 24.03ZM45.7168 23.652C45.9408 23.652 46.1408 23.602 46.3168 23.502C46.4968 23.398 46.6368 23.254 46.7368 23.07C46.8408 22.882 46.8928 22.666 46.8928 22.422C46.8928 22.174 46.8408 21.958 46.7368 21.774C46.6368 21.59 46.4968 21.448 46.3168 21.348C46.1408 21.244 45.9408 21.192 45.7168 21.192C45.4968 21.192 45.2988 21.244 45.1228 21.348C44.9468 21.448 44.8068 21.59 44.7028 21.774C44.5988 21.958 44.5468 22.174 44.5468 22.422C44.5468 22.666 44.5988 22.882 44.7028 23.07C44.8068 23.254 44.9468 23.398 45.1228 23.502C45.2988 23.602 45.4968 23.652 45.7168 23.652ZM46.9048 24V23.052L46.9468 22.416L46.8868 21.78V19.548H47.3128V24H46.9048ZM50.0772 24.03C49.7492 24.03 49.4612 23.962 49.2132 23.826C48.9652 23.686 48.7712 23.496 48.6312 23.256C48.4912 23.012 48.4212 22.734 48.4212 22.422C48.4212 22.11 48.4872 21.834 48.6192 21.594C48.7552 21.354 48.9392 21.166 49.1712 21.03C49.4072 20.89 49.6712 20.82 49.9632 20.82C50.2592 20.82 50.5212 20.888 50.7492 21.024C50.9812 21.156 51.1632 21.344 51.2952 21.588C51.4272 21.828 51.4932 22.106 51.4932 22.422C51.4932 22.442 51.4912 22.464 51.4872 22.488C51.4872 22.508 51.4872 22.53 51.4872 22.554H48.7452V22.236H51.2592L51.0912 22.362C51.0912 22.134 51.0412 21.932 50.9412 21.756C50.8452 21.576 50.7132 21.436 50.5452 21.336C50.3772 21.236 50.1832 21.186 49.9632 21.186C49.7472 21.186 49.5532 21.236 49.3812 21.336C49.2092 21.436 49.0752 21.576 48.9792 21.756C48.8832 21.936 48.8352 22.142 48.8352 22.374V22.44C48.8352 22.68 48.8872 22.892 48.9912 23.076C49.0992 23.256 49.2472 23.398 49.4352 23.502C49.6272 23.602 49.8452 23.652 50.0892 23.652C50.2812 23.652 50.4592 23.618 50.6232 23.55C50.7912 23.482 50.9352 23.378 51.0552 23.238L51.2952 23.514C51.1552 23.682 50.9792 23.81 50.7672 23.898C50.5592 23.986 50.3292 24.03 50.0772 24.03ZM56.5363 20.82C56.7923 20.82 57.0143 20.87 57.2023 20.97C57.3943 21.066 57.5423 21.214 57.6463 21.414C57.7543 21.614 57.8083 21.866 57.8083 22.17V24H57.3823V22.212C57.3823 21.88 57.3023 21.63 57.1423 21.462C56.9863 21.29 56.7643 21.204 56.4763 21.204C56.2603 21.204 56.0723 21.25 55.9123 21.342C55.7563 21.43 55.6343 21.56 55.5463 21.732C55.4623 21.9 55.4203 22.104 55.4203 22.344V24H54.9943V22.212C54.9943 21.88 54.9143 21.63 54.7543 21.462C54.5943 21.29 54.3703 21.204 54.0823 21.204C53.8703 21.204 53.6843 21.25 53.5243 21.342C53.3643 21.43 53.2403 21.56 53.1523 21.732C53.0683 21.9 53.0263 22.104 53.0263 22.344V24H52.6003V20.85H53.0083V21.702L52.9423 21.552C53.0383 21.324 53.1923 21.146 53.4043 21.018C53.6203 20.886 53.8743 20.82 54.1663 20.82C54.4743 20.82 54.7363 20.898 54.9523 21.054C55.1683 21.206 55.3083 21.436 55.3723 21.744L55.2043 21.678C55.2963 21.422 55.4583 21.216 55.6903 21.06C55.9263 20.9 56.2083 20.82 56.5363 20.82ZM59.2036 24V20.85H59.6296V24H59.2036ZM59.4196 20.154C59.3316 20.154 59.2576 20.124 59.1976 20.064C59.1376 20.004 59.1076 19.932 59.1076 19.848C59.1076 19.764 59.1376 19.694 59.1976 19.638C59.2576 19.578 59.3316 19.548 59.4196 19.548C59.5076 19.548 59.5816 19.576 59.6416 19.632C59.7016 19.688 59.7316 19.758 59.7316 19.842C59.7316 19.93 59.7016 20.004 59.6416 20.064C59.5856 20.124 59.5116 20.154 59.4196 20.154ZM63.0289 24V23.304L63.0109 23.19V22.026C63.0109 21.758 62.9349 21.552 62.7829 21.408C62.6349 21.264 62.4129 21.192 62.1169 21.192C61.9129 21.192 61.7189 21.226 61.5349 21.294C61.3509 21.362 61.1949 21.452 61.0669 21.564L60.8749 21.246C61.0349 21.11 61.2269 21.006 61.4509 20.934C61.6749 20.858 61.9109 20.82 62.1589 20.82C62.5669 20.82 62.8809 20.922 63.1009 21.126C63.3249 21.326 63.4369 21.632 63.4369 22.044V24H63.0289ZM61.9429 24.03C61.7069 24.03 61.5009 23.992 61.3249 23.916C61.1529 23.836 61.0209 23.728 60.9289 23.592C60.8369 23.452 60.7909 23.292 60.7909 23.112C60.7909 22.948 60.8289 22.8 60.9049 22.668C60.9849 22.532 61.1129 22.424 61.2889 22.344C61.4689 22.26 61.7089 22.218 62.0089 22.218H63.0949V22.536H62.0209C61.7169 22.536 61.5049 22.59 61.3849 22.698C61.2689 22.806 61.2109 22.94 61.2109 23.1C61.2109 23.28 61.2809 23.424 61.4209 23.532C61.5609 23.64 61.7569 23.694 62.0089 23.694C62.2489 23.694 62.4549 23.64 62.6269 23.532C62.8029 23.42 62.9309 23.26 63.0109 23.052L63.1069 23.346C63.0269 23.554 62.8869 23.72 62.6869 23.844C62.4909 23.968 62.2429 24.03 61.9429 24.03Z" fill="white" fill-opacity="0.6"/>
</svg>
